# xmcd CD database file
#
# Track frame offsets:
#	150
#	15167
#	30112
#	45795
#	62410
#	82197
#	96285
#	110840
#	135680
#	153537
#	176510
#	197295
#	223582
#	243075
#
# Disc length: 4440 seconds
#
# Revision: 0
# Processed by: cddbd v1.5.1PL0 Copyright (c) Steve Scherf et al.
# Submitted via: CDex 1.51
#
DISCID=a411560e
DTITLE=Various Artist - Graduation Album 2004
DYEAR=2004
DGENRE=Punk Rock
TTITLE0=いい日旅立ち
TTITLE1=想い出がいっぱい
TTITLE2=さよなら
TTITLE3=心の旅
TTITLE4=時代
TTITLE5=青春の影
TTITLE6=巣立ちの歌
TTITLE7=なごり雪
TTITLE8=青春
TTITLE9=卒業写真
TTITLE10=今日の日はさようなら
TTITLE11=卒業
TTITLE12=仰げば尊し
TTITLE13=ボーナストラック
EXTD=YEAR: 2004
EXTT0=
EXTT1=
EXTT2=
EXTT3=
EXTT4=
EXTT5=
EXTT6=
EXTT7=
EXTT8=
EXTT9=
EXTT10=
EXTT11=
EXTT12=
EXTT13=
PLAYORDER=
